<svg id="Layer_1" data-name="Layer 1" xmlns="http://www.w3.org/2000/svg" xmlns:xlink="http://www.w3.org/1999/xlink" viewBox="0 0 1024 1024"><defs><style>.cls-1{fill:url(#linear-gradient);}.cls-2{fill:#fff;fill-rule:evenodd;}</style><linearGradient id="linear-gradient" x1="-95.47" y1="721.17" x2="1116.87" y2="303.73" gradientUnits="userSpaceOnUse"><stop offset="0" stop-color="#f0f"/><stop offset="0.09" stop-color="#f705ff"/><stop offset="0.22" stop-color="#e313ff"/><stop offset="0.38" stop-color="#c12aff"/><stop offset="0.56" stop-color="#924afe"/><stop offset="0.75" stop-color="#5573fe"/><stop offset="0.97" stop-color="#0da4fd"/><stop offset="1" stop-color="#00acfd"/></linearGradient></defs><rect class="cls-1" width="1024" height="1024"/><path class="cls-2" d="M717.28,534.55a206.08,206.08,0,0,1-5.5,29.78H819.43q2.51-14.67,3.61-29.78c.55-7.55.82-15.2.82-22.9s-.27-15.33-.82-22.9q-1.1-15.09-3.61-29.76C797.31,328.79,694.57,226,564.35,203.91q-9.09-1.54-18.36-2.56a37.31,37.31,0,0,0-2.53-5.31,36.65,36.65,0,0,0-50.1-13.43,38.63,38.63,0,0,0-4.57,3.11,36.69,36.69,0,0,0-9.72,45.4l.87,1.59a36.67,36.67,0,0,0,64.39-1.59c6.74.78,13.43,1.79,20,3A282.69,282.69,0,0,1,789.21,459a285.81,285.81,0,0,1,4,29.76q.91,11.34.9,22.9t-.9,22.9h-46c.7-7.53,1.08-15.17,1.08-22.9s-.38-15.36-1.08-22.9a236.38,236.38,0,0,0-107.29-176,232,232,0,0,0-29.78-16.33v33.26a206.25,206.25,0,0,1,107.13,159,210.39,210.39,0,0,1,0,45.8"/><path class="cls-2" d="M311.62,564.33a206.09,206.09,0,0,1-5.51-29.78,210.39,210.39,0,0,1,0-45.8A205.82,205.82,0,0,1,311.62,459H204q-2.47,14.65-3.59,29.76-.83,11.36-.83,22.9c0,7.7.28,15.35.83,22.9q1.09,15.11,3.59,29.78C226.09,694.52,328.83,797.28,459,819.4q9.09,1.54,18.38,2.56a34.86,34.86,0,0,0,2.53,5.32A36.66,36.66,0,0,0,530,840.7a34.08,34.08,0,0,0,4.55-3.11,36.64,36.64,0,0,0,9.73-45.4l-.86-1.59a36.67,36.67,0,0,0-64.39,1.59q-10.14-1.16-20-3C345.3,767.7,255.65,678.06,234.19,564.33a288.55,288.55,0,0,1-4-29.78q-.92-11.32-.91-22.9t.91-22.9h46q-1.1,11.31-1.1,22.9t1.1,22.9a237,237,0,0,0,137,192.32V693.61A207.52,207.52,0,0,1,311.62,564.33Z"/><path class="cls-2" d="M649.32,428c1.18,1.94,2.33,3.91,3.43,5.91Q651.1,430.89,649.32,428ZM424.18,646.86c3.17,2.07,6.43,4,9.75,5.85C430.61,650.87,427.35,648.92,424.18,646.86Zm-14.63-10.7c1.16,1,2.35,1.91,3.54,2.82Q411.3,637.6,409.55,636.16Zm-11.72-10.63q2.4,2.41,4.89,4.69Q400.23,627.93,397.83,625.53Zm-31.7-182.84q1.17-2.44,2.41-4.86Q367.28,440.23,366.13,442.69Z"/><path class="cls-2" d="M693.64,610.12A204.69,204.69,0,0,1,674,639.88a207.7,207.7,0,0,1-63.83,53.72,204.93,204.93,0,0,1-45.82,18.12V663.89l2.18-.77c1.45-.52,2.89-1.07,4.31-1.63l2.13-.86,2.11-.89,2.11-.92,2.08-.94q5.21-2.4,10.19-5.17l2-1.11c1.27-.72,2.52-1.46,3.76-2.21q3.09-1.87,6.07-3.88l1.71-1.17c.63-.43,1.25-.86,1.86-1.3q3.7-2.61,7.24-5.45l1.76-1.43c.59-.47,1.16-1,1.74-1.44,1-.84,2-1.7,3-2.57.43-.38.87-.77,1.3-1.17s.61-.55.92-.84c.53-.48,1-1,1.57-1.46q3.28-3.1,6.39-6.39l1.5-1.6c1-1.13,2.06-2.27,3.06-3.43.49-.55,1-1.12,1.45-1.68s1-1.21,1.52-1.83.92-1.13,1.37-1.7c1-1.18,1.87-2.37,2.78-3.58.46-.6.91-1.21,1.35-1.82,1-1.38,2-2.79,3-4.21.31-.44.61-.89.9-1.33l1.32-2c.39-.61.79-1.22,1.17-1.84s.77-1.23,1.15-1.85.82-1.35,1.22-2,.77-1.31,1.14-2,.75-1.32,1.12-2l.55-1c.31-.57.62-1.14.92-1.72s.61-1.15.9-1.73a160.38,160.38,0,0,0,8.11-18.65c.24-.66.47-1.33.7-2,.55-1.58,1.07-3.18,1.57-4.78.16-.51.31-1,.47-1.53.41-1.39.81-2.78,1.19-4.19q.27-1,.51-1.92c.5-1.93,1-3.88,1.38-5.83.07-.31.14-.62.2-.92q.32-1.49.6-3s0,0,0,0c.23-1.25.46-2.51.67-3.77.07-.41.13-.82.2-1.23.14-.86.27-1.73.39-2.6s.26-1.87.38-2.81.22-1.88.32-2.83.2-1.87.28-2.82v0q.12-1.29.21-2.58c.14-1.86.24-3.73.31-5.6,0-.33,0-.66,0-1q0-1.17.06-2.34c0-1,0-1.93,0-2.9v0c0-1,0-1.93,0-2.89,0-.77,0-1.54-.06-2.3,0-.34,0-.68,0-1-.07-1.87-.17-3.74-.31-5.6-.06-.87-.13-1.73-.21-2.59h0c-.08-1-.17-1.89-.28-2.83s-.21-1.89-.32-2.83-.25-1.88-.38-2.82q-.11-.81-.24-1.62c-.06-.44-.13-.89-.21-1.33q-.52-3.32-1.2-6.57c-.06-.32-.12-.63-.19-.94s-.15-.7-.23-1.05c-.26-1.21-.54-2.42-.83-3.63-.1-.43-.21-.87-.32-1.3s-.15-.6-.23-.9c-.16-.65-.33-1.29-.51-1.93q-1.44-5.31-3.23-10.49c-.25-.73-.51-1.45-.77-2.18-.79-2.17-1.62-4.31-2.49-6.44-.29-.71-.59-1.41-.89-2.11s-.61-1.42-.92-2.12-.63-1.38-1-2.07-.64-1.38-1-2.07q-2-4.11-4.19-8.11c-1.1-2-2.25-4-3.43-5.91-.77-1.27-1.57-2.54-2.38-3.79q-.63-1-1.29-1.95c-.42-.63-.84-1.26-1.27-1.88q-1.29-1.87-2.63-3.7c-.44-.61-.89-1.21-1.35-1.81s-.91-1.21-1.38-1.8c-.91-1.19-1.86-2.38-2.82-3.54s-1.93-2.32-2.92-3.46c-.53-.62-1.08-1.24-1.63-1.85s-.92-1-1.39-1.52-1-1.11-1.54-1.66q-4.28-4.51-8.88-8.69c-.43-.4-.87-.79-1.3-1.17l-1.24-1.09c-.56-.49-1.12-1-1.68-1.44s-1.21-1-1.83-1.52-1.13-.93-1.71-1.39-1.27-1-1.91-1.5-1.11-.85-1.67-1.27q-1.8-1.38-3.66-2.68c-.61-.44-1.23-.87-1.86-1.3s-1.24-.86-1.87-1.27-1.26-.84-1.9-1.25l-1.51-1c-.83-.53-1.66-1.05-2.5-1.55l-1.79-1.07c-.65-.39-1.31-.77-2-1.14s-1.5-.86-2.26-1.27c-.57-.32-1.15-.63-1.73-.94-1.38-.74-2.78-1.46-4.18-2.16-1.17-.57-2.34-1.14-3.52-1.69-.89-.42-1.79-.83-2.69-1.23l-2-.86c-.7-.31-1.4-.6-2.11-.89l-2.13-.86q-3.21-1.27-6.49-2.4V280.93a238.48,238.48,0,0,0-29.76-4.79v76.09l-2.84-.38-2.76-.32-.14,0-2.28-.22-1.05-.09-2.34-.18c-1-.07-1.91-.13-2.87-.18s-2.18-.11-3.27-.14c-.82,0-1.64-.05-2.47-.06s-1.91,0-2.86,0h0c-1,0-1.91,0-2.87,0l-2.51.06-.85,0-2.38.11c-1,.05-1.92.11-2.87.18l-2.37.18-1,.09-2.28.22-.14,0-2.76.32-2.84.38V276.15a236.62,236.62,0,0,0-176,107.28H260A283.5,283.5,0,0,1,383.47,260a280.08,280.08,0,0,1,29.76-13.08V215.34A312.22,312.22,0,0,0,215.38,413.19H329.76a207.86,207.86,0,0,1,50.67-61.38c1-.84,2-1.65,3-2.46a207.47,207.47,0,0,1,29.76-19.64c4.25-2.29,8.57-4.45,13-6.46A205.3,205.3,0,0,1,459,311.58v47.84l-.1,0L456,360.51c-1.31.48-2.61,1-3.91,1.5-1,.4-2.06.82-3.07,1.26l-1.45.62q-2.54,1.1-5,2.29c-.63.29-1.25.6-1.87.9q-2.91,1.43-5.74,3-3.42,1.86-6.74,3.88l-.21.13-1.75,1.09h0a161.52,161.52,0,0,0-45.8,43.21v0l-.27.39c-.92,1.31-1.82,2.62-2.71,4l-.31.46c-.51.78-1,1.55-1.51,2.34s-1,1.56-1.48,2.36a2.82,2.82,0,0,0-.18.29l-1.29,2.16c-1.45,2.47-2.83,5-4.14,7.52q-1.25,2.42-2.41,4.86c-.48,1-.93,2-1.38,3-.37.83-.73,1.66-1.09,2.49q-3.11,7.22-5.51,14.79l-.45,1.46c-.19.61-.37,1.22-.55,1.82s-.35,1.23-.52,1.84l-.51,1.84-.48,1.85c-.16.62-.31,1.24-.46,1.86q-.44,1.8-.84,3.63a.36.36,0,0,0,0,.11c-.13.62-.27,1.25-.4,1.88-.25,1.25-.5,2.52-.72,3.78-.35,1.9-.66,3.82-.93,5.74-.13.94-.26,1.87-.38,2.82s-.22,1.88-.32,2.83-.2,1.88-.28,2.83h0c-.08.86-.15,1.72-.21,2.59-.14,1.86-.24,3.73-.31,5.6,0,.34,0,.68,0,1,0,.76-.05,1.53-.06,2.3,0,1,0,1.92,0,2.89v0c0,1,0,1.94,0,2.9q0,1.17.06,2.34c0,.33,0,.66,0,1,.07,1.87.17,3.74.31,5.6q.09,1.29.21,2.58v0c.08.95.18,1.89.28,2.82s.21,1.89.32,2.83.25,1.88.38,2.81c.09.64.19,1.28.29,1.92s.2,1.28.3,1.91.21,1.27.33,1.91c.23,1.27.48,2.53.73,3.79.13.63.26,1.26.4,1.89a.52.52,0,0,0,0,.11q.41,1.81.84,3.63c.14.62.3,1.24.46,1.86s.29,1.11.43,1.67.36,1.35.56,2,.32,1.15.49,1.73a158,158,0,0,0,6.19,17.35L364,576l.09.19c.25.58.5,1.15.76,1.71s.54,1.19.82,1.78.5,1.07.76,1.61.62,1.28.93,1.91.58,1.17.88,1.74l.72,1.38q1.89,3.63,4,7.15c.65,1.1,1.32,2.2,2,3.29.15.24.3.49.46.73.34.53.67,1.07,1,1.59q1.26,1.95,2.58,3.85,1.07,1.56,2.19,3.09c1.46,2,3,4,4.56,6,.47.59,1,1.18,1.43,1.76s1.12,1.37,1.7,2c.76.89,1.53,1.78,2.3,2.65,1.13,1.28,2.29,2.55,3.48,3.79,1,1.1,2.08,2.18,3.15,3.24q2.4,2.4,4.89,4.69l1.68,1.52q2.52,2.28,5.15,4.42,1.76,1.44,3.54,2.82l1.8,1.38q2.72,2.05,5.52,4l1.87,1.27c.63.42,1.26.84,1.9,1.25,3.17,2.06,6.43,4,9.75,5.85.67.36,1.33.73,2,1.08l1.63.86c.84.45,1.7.88,2.56,1.31,1.32.65,2.65,1.29,4,1.91l2.09,1,2.1.92,2.12.89c.7.29,1.41.58,2.13.86,1.42.57,2.86,1.11,4.3,1.63l2.18.77v78.49a235.13,235.13,0,0,0,29.76,4.79V671.08l2.82.38,2.83.32c.93.1,1.88.2,2.82.28h0q1.32.12,2.64.21c1.84.14,3.69.24,5.54.31l1,0c.77,0,1.55,0,2.32.06q1.46,0,2.91,0t2.91,0c.77,0,1.54,0,2.3-.06l1,0c1.87-.07,3.74-.17,5.6-.31.87-.06,1.73-.13,2.59-.21h0c.94-.08,1.89-.17,2.83-.28s1.87-.2,2.81-.32h0l2.8-.38v76.09l.48,0,.48,0L536,747l.46,0,.48,0,.47,0,.48,0,.46-.06.48,0,.48-.06.46,0,.48-.06.46-.06.48,0,.47-.06.47-.07.47,0,.46-.06.48-.07.46-.07.46-.06.48-.06.47-.07.46-.06.48-.07.46-.07.46-.07.46-.08.49-.07.46-.07.46-.07.46-.07.46-.08.49-.08L551,745l.92-.16.46-.08.46-.08.47-.08.46-.08.46-.08.46-.09.47-.09.46-.09.46-.08.46-.09.47-.09.46-.1.44-.08.46-.09.47-.09.46-.1.46-.09.46-.1.45-.09.46-.1.47-.1.46-.1.44-.09.46-.11.47-.1.44-.1.46-.1a235.29,235.29,0,0,0,75.56-31.85,237.87,237.87,0,0,0,70.66-70.65h52.79A283.62,283.62,0,0,1,639.93,763.33a280.33,280.33,0,0,1-29.76,13.08V808a307.8,307.8,0,0,0,29.76-11.62A312.19,312.19,0,0,0,808,610.12ZM436.42,532.71l69-81.82L542,407.59l-.49,1.94L521.3,490.6H587l-69,81.82-5.69,6.73-30.85,36.57,9-36.2,10.82-43.45.84-3.36Z"/></svg>